<?xml version="1.0" encoding="UTF-8"?>
<svg xmlns="http://www.w3.org/2000/svg" xmlns:xlink="http://www.w3.org/1999/xlink" width="435px" height="200px" viewBox="0 0 434 200" version="1.1">
<g id="surface1">
<path style=" stroke:none;fill-rule:nonzero;fill:rgb(100%,63.137255%,10.196078%);fill-opacity:1;" d="M 22.785156 82.320312 L 29.472656 82.320312 L 38.804688 100.074219 L 39.101562 100.074219 L 48.4375 82.320312 L 54.828125 82.320312 L 54.828125 117.226562 L 49.4375 117.226562 L 49.4375 90.523438 L 49.183594 90.523438 L 46.441406 96.175781 L 38.804688 110.125 L 31.167969 96.175781 L 28.421875 90.523438 L 28.175781 90.523438 L 28.175781 117.226562 L 22.785156 117.226562 Z M 22.785156 82.320312 "/>
<path style=" stroke:none;fill-rule:nonzero;fill:rgb(100%,63.137255%,10.196078%);fill-opacity:1;" d="M 60.761719 104.226562 C 60.761719 95.921875 65.304688 90.621094 72.691406 90.621094 C 80.324219 90.621094 84.21875 96.375 84.21875 103.574219 L 84.21875 105.621094 L 66.402344 105.621094 L 66.402344 106.492188 C 66.402344 110.492188 68.84375 113.34375 73.238281 113.34375 C 76.433594 113.34375 78.578125 111.84375 80.078125 109.429688 L 83.273438 112.578125 C 81.328125 115.726562 77.535156 117.824219 72.695312 117.824219 C 65.308594 117.824219 60.761719 112.527344 60.761719 104.226562 Z M 66.402344 101.675781 L 66.402344 102.023438 L 78.480469 102.023438 L 78.480469 101.527344 C 78.480469 97.523438 76.285156 94.875 72.691406 94.875 C 68.949219 94.875 66.402344 97.675781 66.402344 101.675781 Z M 66.402344 101.675781 "/>
<path style=" stroke:none;fill-rule:nonzero;fill:rgb(100%,63.137255%,10.196078%);fill-opacity:1;" d="M 89.765625 117.226562 L 89.765625 91.222656 L 95.203125 91.222656 L 95.203125 96.222656 L 95.453125 96.222656 C 96.199219 93.574219 98.449219 91.222656 102.589844 91.222656 L 104.039062 91.222656 L 104.039062 96.472656 L 101.890625 96.472656 C 97.597656 96.472656 95.203125 97.921875 95.203125 100.621094 L 95.203125 117.226562 Z M 89.765625 117.226562 "/>
<path style=" stroke:none;fill-rule:nonzero;fill:rgb(100%,63.137255%,10.196078%);fill-opacity:1;" d="M 106.382812 104.226562 C 106.382812 95.921875 110.675781 90.621094 118.160156 90.621094 C 123.367188 90.621094 126.644531 93.175781 128.195312 97.023438 L 123.691406 99.128906 C 122.9375 96.730469 121.085938 95.183594 118.148438 95.183594 C 114.15625 95.183594 112.109375 97.929688 112.109375 101.933594 L 112.109375 106.582031 C 112.109375 110.582031 114.15625 113.335938 118.148438 113.335938 C 121.292969 113.335938 123.140625 111.636719 124.222656 109.035156 L 128.367188 111.234375 C 126.671875 115.484375 123.125 117.835938 118.136719 117.835938 C 110.671875 117.824219 106.382812 112.527344 106.382812 104.226562 Z M 106.382812 104.226562 "/>
<path style=" stroke:none;fill-rule:nonzero;fill:rgb(100%,63.137255%,10.196078%);fill-opacity:1;" d="M 148.804688 112.925781 L 148.605469 112.925781 C 147.660156 115.472656 145.613281 117.824219 141.320312 117.824219 C 135.980469 117.824219 132.835938 114.175781 132.835938 107.773438 L 132.835938 91.222656 L 138.277344 91.222656 L 138.277344 107.074219 C 138.277344 111.027344 139.921875 113.125 143.269531 113.125 C 146.0625 113.125 148.804688 111.675781 148.804688 108.625 L 148.804688 91.234375 L 154.246094 91.234375 L 154.246094 117.238281 L 148.804688 117.238281 Z M 148.804688 112.925781 "/>
<path style=" stroke:none;fill-rule:nonzero;fill:rgb(100%,63.137255%,10.196078%);fill-opacity:1;" d="M 161.53125 117.226562 L 161.53125 91.222656 L 166.972656 91.222656 L 166.972656 96.222656 L 167.222656 96.222656 C 167.972656 93.574219 170.21875 91.222656 174.359375 91.222656 L 175.808594 91.222656 L 175.808594 96.472656 L 173.660156 96.472656 C 169.367188 96.472656 166.972656 97.921875 166.972656 100.621094 L 166.972656 117.226562 Z M 161.53125 117.226562 "/>
<path style=" stroke:none;fill-rule:nonzero;fill:rgb(100%,63.137255%,10.196078%);fill-opacity:1;" d="M 179.648438 83.722656 L 179.648438 82.875 C 179.648438 81.222656 180.648438 80.023438 182.890625 80.023438 C 185.136719 80.023438 186.085938 81.222656 186.085938 82.875 L 186.085938 83.722656 C 186.085938 85.375 185.140625 86.574219 182.890625 86.574219 C 180.644531 86.574219 179.648438 85.375 179.648438 83.722656 Z M 180.148438 91.222656 L 185.585938 91.222656 L 185.585938 117.226562 L 180.148438 117.226562 Z M 180.148438 91.222656 "/>
<path style=" stroke:none;fill-rule:nonzero;fill:rgb(100%,63.137255%,10.196078%);fill-opacity:1;" d="M 208.597656 112.925781 L 208.398438 112.925781 C 207.453125 115.472656 205.402344 117.824219 201.109375 117.824219 C 195.769531 117.824219 192.625 114.175781 192.625 107.773438 L 192.625 91.222656 L 198.066406 91.222656 L 198.066406 107.074219 C 198.066406 111.027344 199.714844 113.125 203.054688 113.125 C 205.851562 113.125 208.597656 111.675781 208.597656 108.625 L 208.597656 91.234375 L 214.039062 91.234375 L 214.039062 117.238281 L 208.597656 117.238281 Z M 208.597656 112.925781 "/>
<path style=" stroke:none;fill-rule:nonzero;fill:rgb(100%,63.137255%,10.196078%);fill-opacity:1;" d="M 219.027344 112.925781 L 222.519531 109.726562 C 224.417969 112.027344 226.765625 113.425781 229.859375 113.425781 C 232.953125 113.425781 234.597656 112.121094 234.597656 109.949219 C 234.597656 108.296875 233.601562 107.046875 230.90625 106.695312 L 228.507812 106.394531 C 223.21875 105.746094 219.976562 103.449219 219.976562 98.644531 C 219.976562 93.59375 223.917969 90.644531 229.609375 90.644531 C 234.300781 90.644531 236.945312 92.195312 239.289062 94.796875 L 235.949219 97.996094 C 234.375 96.121094 232.054688 95.039062 229.609375 95.042969 C 226.613281 95.042969 225.214844 96.347656 225.214844 98.296875 C 225.214844 100.242188 226.464844 101.195312 229.207031 101.644531 L 231.605469 101.949219 C 237.292969 102.796875 239.851562 105.296875 239.851562 109.496094 C 239.851562 114.496094 235.804688 117.847656 229.570312 117.847656 C 224.667969 117.824219 221.472656 115.972656 219.027344 112.925781 Z M 219.027344 112.925781 "/>
<path style=" stroke:none;fill-rule:nonzero;fill:rgb(52.54902%,30.980392%,0%);fill-opacity:1;" d="M 409.191406 57.433594 C 406.816406 53.285156 402.621094 50.503906 397.878906 49.933594 C 393.136719 49.363281 388.40625 51.070312 385.113281 54.539062 L 350.128906 34.292969 C 351.9375 28.089844 349.625 21.417969 344.371094 17.671875 C 339.113281 13.925781 332.066406 13.925781 326.808594 17.671875 C 321.554688 21.417969 319.242188 28.089844 321.050781 34.292969 L 286.050781 54.527344 C 281.589844 49.847656 274.660156 48.515625 268.789062 51.203125 C 262.917969 53.894531 259.390625 60.015625 260.003906 66.453125 C 260.617188 72.890625 265.234375 78.234375 271.507812 79.765625 L 271.507812 137.0625 L 321.042969 165.714844 C 319.234375 171.917969 321.546875 178.585938 326.800781 182.332031 C 332.058594 186.078125 339.105469 186.078125 344.363281 182.332031 C 349.617188 178.585938 351.929688 171.917969 350.121094 165.714844 L 399.597656 137.066406 L 399.597656 79.773438 C 404.242188 78.65625 408.09375 75.410156 409.976562 71.007812 C 411.859375 66.609375 411.5625 61.578125 409.167969 57.433594 Z M 324.632812 40.539062 L 325.097656 41.003906 L 309.578125 67.9375 L 314.882812 73.15625 L 331.335938 44.609375 C 334.105469 45.414062 337.042969 45.414062 339.808594 44.609375 L 371.351562 99.390625 L 376.660156 94.175781 L 346.0625 41.007812 C 346.21875 40.855469 346.375 40.699219 346.527344 40.542969 L 381.519531 60.796875 C 380.363281 64.757812 380.875 69.023438 382.933594 72.601562 C 384.988281 76.179688 388.414062 78.761719 392.417969 79.746094 L 392.417969 131.371094 L 278.710938 131.371094 L 278.710938 79.761719 C 282.726562 78.78125 286.167969 76.199219 288.234375 72.613281 C 290.300781 69.027344 290.8125 64.75 289.648438 60.777344 Z M 335.585938 154.78125 C 331.449219 154.773438 327.488281 156.464844 324.632812 159.460938 L 288.539062 138.589844 L 382.589844 138.589844 L 346.527344 159.460938 C 343.671875 156.46875 339.71875 154.777344 335.585938 154.78125 Z M 335.585938 154.78125 "/>
<path style=" stroke:none;fill-rule:nonzero;fill:rgb(100%,63.137255%,10.196078%);fill-opacity:1;" d="M 403.59375 121.824219 C 400.015625 119.761719 395.753906 119.25 391.789062 120.410156 L 376.671875 94.15625 L 356.457031 114.0625 L 309.585938 67.9375 L 279.347656 120.40625 C 272.378906 118.402344 264.972656 121.628906 261.679688 128.097656 C 258.386719 134.570312 260.136719 142.472656 265.851562 146.941406 C 271.566406 151.410156 279.640625 151.195312 285.113281 146.429688 C 290.582031 141.660156 291.910156 133.679688 288.28125 127.390625 C 287.550781 126.136719 286.652344 124.992188 285.601562 123.992188 L 311.179688 79.617188 L 356.457031 124.179688 L 375.085938 105.84375 L 385.542969 124.003906 C 380.828125 128.519531 379.527344 135.554688 382.3125 141.464844 C 385.097656 147.371094 391.347656 150.832031 397.824219 150.054688 C 404.300781 149.273438 409.554688 144.425781 410.863281 138.023438 C 412.171875 131.621094 409.242188 125.097656 403.59375 121.832031 Z M 403.59375 121.824219 "/>
</g>
</svg>
